<svg width="16" height="16" viewBox="0 0 16 16" fill="none" xmlns="http://www.w3.org/2000/svg">
<g clip-path="url(#clip0_428_40)">
<path d="M10.2067 5.79681C9.99977 5.79681 9.83203 5.96455 9.83203 6.17152V13.2535C9.83203 13.4603 9.99977 13.6282 10.2067 13.6282C10.4137 13.6282 10.5814 13.4603 10.5814 13.2535V6.17152C10.5814 5.96455 10.4137 5.79681 10.2067 5.79681Z" fill="black"/>
<path d="M5.78486 5.79681C5.5779 5.79681 5.41016 5.96455 5.41016 6.17152V13.2535C5.41016 13.4603 5.5779 13.6282 5.78486 13.6282C5.99183 13.6282 6.15957 13.4603 6.15957 13.2535V6.17152C6.15957 5.96455 5.99183 5.79681 5.78486 5.79681Z" fill="black"/>
<path d="M2.56423 4.76329V13.9953C2.56423 14.5409 2.76431 15.0534 3.11384 15.421C3.46176 15.7898 3.94596 15.9991 4.45269 15.9999H11.5422C12.0491 15.9991 12.5333 15.7898 12.8811 15.421C13.2306 15.0534 13.4307 14.5409 13.4307 13.9953V4.76329C14.1255 4.57887 14.5758 3.90762 14.4828 3.19465C14.3897 2.48183 13.7824 1.94861 13.0635 1.94846H11.145V1.48008C11.1472 1.0862 10.9915 0.707978 10.7126 0.429729C10.4338 0.151627 10.055 -0.00323193 9.6611 -1.18019e-05H6.33383C5.93995 -0.00323193 5.56114 0.151627 5.28231 0.429729C5.00348 0.707978 4.84774 1.0862 4.84993 1.48008V1.94846H2.93147C2.2125 1.94861 1.60521 2.48183 1.51212 3.19465C1.41918 3.90762 1.86941 4.57887 2.56423 4.76329ZM11.5422 15.2505H4.45269C3.81203 15.2505 3.31364 14.7002 3.31364 13.9953V4.79623H12.6813V13.9953C12.6813 14.7002 12.1829 15.2505 11.5422 15.2505ZM5.59935 1.48008C5.59686 1.28497 5.67356 1.09717 5.81202 0.959441C5.95034 0.821707 6.13857 0.746034 6.33383 0.7494H9.6611C9.85636 0.746034 10.0446 0.821707 10.1829 0.959441C10.3214 1.09703 10.3981 1.28497 10.3956 1.48008V1.94846H5.59935V1.48008ZM2.93147 2.69787H13.0635C13.436 2.69787 13.7379 2.99983 13.7379 3.37234C13.7379 3.74485 13.436 4.04681 13.0635 4.04681H2.93147C2.55896 4.04681 2.257 3.74485 2.257 3.37234C2.257 2.99983 2.55896 2.69787 2.93147 2.69787Z" fill="black"/>
<path d="M7.9958 5.79681C7.78883 5.79681 7.62109 5.96455 7.62109 6.17152V13.2535C7.62109 13.4603 7.78883 13.6282 7.9958 13.6282C8.20276 13.6282 8.3705 13.4603 8.3705 13.2535V6.17152C8.3705 5.96455 8.20276 5.79681 7.9958 5.79681Z" fill="black"/>
</g>
<defs>
<clipPath id="clip0_428_40">
<rect width="16" height="16" fill="white"/>
</clipPath>
</defs>
</svg>
