<svg width="24" height="24" viewBox="0 0 24 24" fill="none" xmlns="http://www.w3.org/2000/svg">
<path d="M4.84864 23.4334C4.75971 23.4334 4.67078 23.4059 4.59604 23.3513C4.46372 23.2551 4.39756 23.0923 4.42549 22.9312L5.75336 15.1908L0.12957 9.70966C0.0127211 9.59539 -0.0293789 9.42484 0.0208834 9.26975C0.0715752 9.11424 0.206037 9.00083 0.367994 8.9772L8.13931 7.84781L11.6151 0.805508C11.6873 0.658588 11.8368 0.565796 12 0.565796C12.1637 0.565796 12.3132 0.658588 12.385 0.805508L15.8604 7.84781L23.6321 8.9772C23.7941 9.00083 23.9281 9.11381 23.9792 9.26975C24.0295 9.42484 23.9878 9.59581 23.8705 9.70966L18.2467 15.1917L19.5742 22.9316C19.6017 23.0927 19.5355 23.2555 19.4036 23.3518C19.2713 23.4489 19.0956 23.4613 18.9508 23.3844L12 19.7303L5.0484 23.3844C4.98567 23.4171 4.91694 23.4334 4.84864 23.4334ZM1.35262 9.70192L6.51459 14.7337C6.61555 14.8321 6.66194 14.9747 6.63788 15.1139L5.41913 22.2185L11.8003 18.8643C11.9253 18.7981 12.0744 18.7981 12.2002 18.8643L18.5805 22.2185L17.3622 15.1139C17.3382 14.9747 17.3846 14.8325 17.4855 14.7337L22.6475 9.70192L15.5141 8.66532C15.3741 8.64513 15.2533 8.55706 15.1906 8.43033L12 1.96669L8.80947 8.43076C8.74675 8.55749 8.62604 8.64556 8.48599 8.66575L1.35262 9.70192Z" fill="black"/>
</svg>
