<svg width="32" height="32" viewBox="0 0 32 32" fill="none" xmlns="http://www.w3.org/2000/svg">
<path d="M30.6625 13.9125H29.8813V8.6375C29.8813 7.4 28.9062 6.425 27.7313 6.425H27.1437V2.9C27.1437 1.6625 26.2313 0.6875 25.125 0.6875C25.125 0.6875 25.0625 0.6875 24.9937 0.6875L2.70625 6.41875C2.7 6.41875 2.6875 6.425 2.68125 6.425C1.58125 6.5125 0.6875 7.45625 0.6875 8.6375V29.1C0.6875 30.3375 1.6625 31.3125 2.8375 31.3125H27.7313C28.9688 31.3125 29.9438 30.3375 29.9438 29.1V23.6875H30.6625C31.0562 23.6875 31.3125 23.425 31.3125 23.0375V14.5688C31.3125 14.175 30.9875 13.9125 30.6625 13.9125ZM25.25 1.925C25.575 1.9875 25.9 2.38125 25.9 2.9V6.41875H7.91875L25.25 1.925ZM28.6437 29.1C28.6437 29.6187 28.25 30.075 27.7313 30.075H2.8375C2.31875 30.075 1.925 29.6187 1.925 29.1V8.6375C1.925 8.11875 2.31875 7.6625 2.8375 7.6625H27.6625C28.1812 7.6625 28.575 8.11875 28.575 8.6375V13.9125H22.125C19.3875 13.9125 17.2375 16.0625 17.2375 18.8C17.2375 21.5375 19.45 23.6875 22.125 23.6875H28.6437V29.1ZM30.0063 22.45H22.125C20.1688 22.45 18.5438 20.8188 18.5438 18.8687C18.5438 16.9187 20.175 15.2875 22.125 15.2875H30.0063V22.45Z" fill="black"/>
<path d="M21.4062 18.9312C21.4062 19.325 21.7312 19.5812 22.0563 19.5812H22.6438C22.9688 19.5812 23.2938 19.3187 23.2938 18.9312C23.2938 18.5375 22.9688 18.2812 22.6438 18.2812H22.0625C21.6688 18.2812 21.4062 18.5437 21.4062 18.9312Z" fill="black"/>
</svg>
