<svg width="32" height="32" viewBox="0 0 32 32" fill="none" xmlns="http://www.w3.org/2000/svg">
<path d="M16 0C7.1776 0 0 7.1776 0 16C0 24.8224 7.1776 32 16 32C24.8224 32 32 24.8224 32 16C32 7.1776 24.8224 0 16 0ZM16 30.9333C7.76587 30.9333 1.06667 24.2341 1.06667 16C1.06667 7.76587 7.76587 1.06667 16 1.06667C24.2341 1.06667 30.9333 7.76587 30.9333 16C30.9333 24.2341 24.2341 30.9333 16 30.9333Z" fill="black"/>
<path d="M16.5349 13.8779V8.46879C16.5349 8.17386 16.296 7.93546 16.0016 7.93546C15.7072 7.93546 15.4682 8.17386 15.4682 8.46879V13.8779C14.7221 14.072 14.1381 14.656 13.944 15.4021H10.1349C9.8405 15.4021 9.60156 15.6405 9.60156 15.9355C9.60156 16.2304 9.8405 16.4688 10.1349 16.4688H13.944C14.1824 17.3861 15.0106 18.0688 16.0016 18.0688C17.1781 18.0688 18.1349 17.112 18.1349 15.9355C18.1349 14.944 17.4522 14.1163 16.5349 13.8779ZM16.0016 17.0021C15.4133 17.0021 14.9349 16.5237 14.9349 15.9355C14.9349 15.3472 15.4133 14.8688 16.0016 14.8688C16.5898 14.8688 17.0682 15.3472 17.0682 15.9355C17.0682 16.5237 16.5898 17.0021 16.0016 17.0021Z" fill="black"/>
<path d="M15.9982 5.26879C16.2926 5.26879 16.5315 5.03039 16.5315 4.73546V4.20213C16.5315 3.90719 16.2926 3.66879 15.9982 3.66879C15.7038 3.66879 15.4648 3.90719 15.4648 4.20213V4.73546C15.4648 5.03039 15.7038 5.26879 15.9982 5.26879Z" fill="black"/>
<path d="M15.9982 26.6021C15.7038 26.6021 15.4648 26.8405 15.4648 27.1355V27.6688C15.4648 27.9637 15.7038 28.2021 15.9982 28.2021C16.2926 28.2021 16.5315 27.9637 16.5315 27.6688V27.1355C16.5315 26.8405 16.2926 26.6021 15.9982 26.6021Z" fill="black"/>
<path d="M27.7346 15.4021H27.2013C26.9069 15.4021 26.668 15.6405 26.668 15.9355C26.668 16.2304 26.9069 16.4688 27.2013 16.4688H27.7346C28.029 16.4688 28.268 16.2304 28.268 15.9355C28.268 15.6405 28.029 15.4021 27.7346 15.4021Z" fill="black"/>
<path d="M4.80104 15.4021H4.26771C3.97331 15.4021 3.73438 15.6405 3.73438 15.9355C3.73438 16.2304 3.97331 16.4688 4.26771 16.4688H4.80104C5.09544 16.4688 5.33438 16.2304 5.33438 15.9355C5.33438 15.6405 5.09544 15.4021 4.80104 15.4021Z" fill="black"/>
<path d="M23.9202 7.26133L23.5431 7.6384C23.3346 7.84693 23.3346 8.184 23.5431 8.39253C23.6471 8.49653 23.7837 8.5488 23.9202 8.5488C24.0567 8.5488 24.1933 8.49653 24.2973 8.39253L24.6743 8.01547C24.8829 7.80693 24.8829 7.46987 24.6743 7.26133C24.4658 7.0528 24.1287 7.05333 23.9202 7.26133Z" fill="black"/>
<path d="M7.70144 23.4779L7.32437 23.8549C7.11584 24.0635 7.11584 24.4005 7.32437 24.6091C7.42837 24.7131 7.5649 24.7653 7.70144 24.7653C7.83797 24.7653 7.9745 24.7131 8.0785 24.6091L8.45557 24.232C8.6641 24.0235 8.6641 23.6864 8.45557 23.4779C8.24704 23.2693 7.90944 23.2699 7.70144 23.4779Z" fill="black"/>
<path d="M24.2973 23.4779C24.0887 23.2693 23.7517 23.2693 23.5431 23.4779C23.3346 23.6864 23.3346 24.0235 23.5431 24.232L23.9202 24.6091C24.0242 24.7131 24.1607 24.7653 24.2973 24.7653C24.4338 24.7653 24.5703 24.7131 24.6743 24.6091C24.8829 24.4005 24.8829 24.0635 24.6743 23.8549L24.2973 23.4779Z" fill="black"/>
<path d="M8.0785 7.26132C7.86997 7.05279 7.5329 7.05279 7.32437 7.26132C7.11584 7.46985 7.11584 7.80692 7.32437 8.01545L7.70144 8.39252C7.80544 8.49652 7.94197 8.54879 8.0785 8.54879C8.21504 8.54879 8.35157 8.49652 8.45557 8.39252C8.6641 8.18399 8.6641 7.84692 8.45557 7.63839L8.0785 7.26132Z" fill="black"/>
</svg>
