<svg width="10" height="10" viewBox="0 0 10 10" fill="none" xmlns="http://www.w3.org/2000/svg">
<g clip-path="url(#clip0_257_78)">
<path d="M9.44445 4.44445H5.55555V0.555548C5.55555 0.24888 5.30555 0 5 0C4.69333 0 4.44445 0.24888 4.44445 0.555548V4.44445H0.555548C0.24888 4.44445 0 4.69333 0 5C0 5.30555 0.24888 5.55555 0.555548 5.55555H4.44445V9.44445C4.44445 9.75 4.69333 10 5 10C5.30555 10 5.55555 9.75 5.55555 9.44445V5.55555H9.44445C9.75 5.55555 10 5.30555 10 5C10 4.69333 9.75 4.44445 9.44445 4.44445Z" fill="white"/>
</g>
<defs>
<clipPath id="clip0_257_78">
<rect width="10" height="10" fill="white"/>
</clipPath>
</defs>
</svg>
