<svg width="26" height="32" viewBox="0 0 26 32" fill="none" xmlns="http://www.w3.org/2000/svg">
<path d="M22.6085 22.8741L17.5136 20.3269C17.033 20.0864 16.7344 19.6032 16.7344 19.0656V17.2624C16.8565 17.1131 16.985 16.9429 17.1178 16.7552C17.7786 15.8219 18.3082 14.7829 18.6933 13.6624C19.4458 13.3173 19.9344 12.5733 19.9344 11.7333V9.6C19.9344 9.0864 19.7424 8.5888 19.401 8.2V5.3632C19.4309 5.06987 19.5482 3.32373 18.2853 1.8832C17.1898 0.6336 15.4122 0 13.001 0C10.5898 0 8.81224 0.6336 7.71677 1.88267C6.45384 3.3232 6.57117 5.06987 6.60104 5.3632V8.2C6.25971 8.5888 6.06771 9.0864 6.06771 9.6V11.7333C6.06771 12.3824 6.36264 12.9877 6.86611 13.3915C7.35464 15.3259 8.37704 16.7835 8.73437 17.2512V19.016C8.73437 19.5323 8.45277 20.0059 7.99997 20.2533L3.24211 22.8485C1.69491 23.6928 0.734375 25.3109 0.734375 27.0731V28.8C0.734375 31.3312 8.75837 32 13.001 32C17.2437 32 25.2677 31.3312 25.2677 28.8V27.1771C25.2677 25.3435 24.2485 23.6944 22.6085 22.8741ZM24.201 28.8C24.201 29.5237 20.248 30.9333 13.001 30.9333C5.75411 30.9333 1.80104 29.5237 1.80104 28.8V27.0731C1.80104 25.7019 2.54878 24.4416 3.75251 23.7856L8.51037 21.1904C9.30664 20.7557 9.80104 19.9221 9.80104 19.016V16.8725L9.67677 16.7243C9.66397 16.7088 8.35677 15.1275 7.85811 12.9563L7.80958 12.7451L7.62771 12.6277C7.31891 12.4283 7.13437 12.0939 7.13437 11.7333V9.6C7.13437 9.3008 7.26131 9.02187 7.49171 8.81333L7.66771 8.65493V5.33333L7.66291 5.26347C7.66131 5.24907 7.47997 3.77067 8.51891 2.5856C9.40264 1.5776 10.9109 1.06667 13.001 1.06667C15.0837 1.06667 16.5888 1.57387 17.4736 2.57493C18.512 3.7488 18.3402 5.25067 18.3392 5.26347L18.3344 8.65493L18.5104 8.81387C18.7408 9.02187 18.8677 9.3008 18.8677 9.6V11.7333C18.8677 12.1989 18.5626 12.6064 18.1093 12.7461L17.8437 12.8277L17.7584 13.0917C17.4016 14.2016 16.8933 15.2267 16.2469 16.1387C16.0885 16.3632 15.9344 16.5621 15.8005 16.7141L15.6677 16.8656V19.0656C15.6677 20.0096 16.192 20.8581 17.0362 21.2805L22.1312 23.8277C23.408 24.4661 24.201 25.7493 24.201 27.1771V28.8Z" fill="black"/>
</svg>
