<svg width="14" height="16" viewBox="0 0 14 16" fill="none" xmlns="http://www.w3.org/2000/svg">
<path d="M1.56227 4.76329V13.9953C1.56227 14.5409 1.76236 15.0534 2.11189 15.421C2.45981 15.7898 2.944 15.9991 3.45073 15.9999H10.5403C11.0472 15.9991 11.5314 15.7898 11.8791 15.421C12.2287 15.0534 12.4288 14.5409 12.4288 13.9953V4.76329C13.1236 4.57887 13.5738 3.90762 13.4809 3.19465C13.3878 2.48183 12.7805 1.94861 12.0615 1.94846H10.143V1.48008C10.1452 1.0862 9.9895 0.707978 9.71067 0.429729C9.43183 0.151627 9.05303 -0.00323193 8.65915 -1.18019e-05H5.33187C4.93799 -0.00323193 4.55919 0.151627 4.28036 0.429729C4.00152 0.707978 3.84578 1.0862 3.84798 1.48008V1.94846H1.92951C1.21055 1.94861 0.60326 2.48183 0.510169 3.19465C0.417224 3.90762 0.867457 4.57887 1.56227 4.76329ZM10.5403 15.2505H3.45073C2.81007 15.2505 2.31169 14.7002 2.31169 13.9953V4.79623H11.6793V13.9953C11.6793 14.7002 11.181 15.2505 10.5403 15.2505ZM4.59739 1.48008C4.5949 1.28497 4.6716 1.09717 4.81007 0.959441C4.94839 0.821707 5.13662 0.746034 5.33187 0.7494H8.65915C8.8544 0.746034 9.04264 0.821707 9.18095 0.959441C9.31942 1.09703 9.39612 1.28497 9.39363 1.48008V1.94846H4.59739V1.48008ZM1.92951 2.69787H12.0615C12.434 2.69787 12.736 2.99983 12.736 3.37234C12.736 3.74485 12.434 4.04681 12.0615 4.04681H1.92951C1.557 4.04681 1.25504 3.74485 1.25504 3.37234C1.25504 2.99983 1.557 2.69787 1.92951 2.69787Z" fill="black"/>
</svg>
